<svg width="871" height="871" viewBox="0 0 871 871" fill="none" xmlns="http://www.w3.org/2000/svg">
<path d="M278.101 437.716C278.101 437.597 278.101 437.477 278.101 437.348C278.061 430.475 275.603 424.549 270.689 419.662C270.679 419.652 270.67 419.641 270.659 419.631C270.286 419.263 269.913 418.894 269.539 418.525C261.734 410.793 253.939 403.053 246.096 395.383C245.289 394.594 244.473 393.796 243.668 393.008C242.821 392.19 241.976 391.362 241.141 390.544C240.954 390.364 240.777 390.195 240.591 390.026C236.531 386.285 231.793 384.12 226.259 383.721C225.473 383.662 224.677 383.641 223.86 383.662C219.044 383.751 214.238 383.701 209.421 383.671C204.624 383.671 199.837 383.641 195.04 383.751C194.588 383.761 194.175 383.751 193.792 383.721C193.743 383.721 193.683 383.711 193.634 383.701C191.294 383.461 190.244 382.365 190.017 380.13C189.978 379.73 189.958 379.302 189.968 378.834C190.076 371.891 189.997 364.948 189.968 357.995C189.968 357.067 189.958 356.279 189.918 355.611C189.899 355.342 189.879 355.092 189.85 354.853C189.536 352.11 188.326 351.98 183.637 351.99C175.567 351.99 167.507 352.07 159.437 351.99C158.7 351.99 157.963 351.98 157.225 351.97C155.525 351.95 153.893 352.06 152.31 352.299C147.729 352.998 143.631 354.803 139.984 357.765C139.984 357.765 139.984 357.765 139.965 357.776C139.227 358.374 138.51 359.022 137.812 359.711C137.379 360.14 136.937 360.569 136.504 361.007C128.307 369.148 120.158 377.337 111.852 385.357C111.124 386.056 110.397 386.753 109.669 387.462C106.731 390.274 104.597 393.357 103.212 396.719C103.212 396.739 103.202 396.749 103.192 396.768C102.12 399.372 101.501 402.156 101.295 405.128C101.235 405.996 101.207 406.873 101.216 407.771C101.324 420.24 101.295 432.709 101.235 445.178C101.235 445.886 101.256 446.585 101.295 447.273C101.6 451.971 102.995 456.231 105.502 460.012C106.289 461.238 107.163 462.395 108.126 463.472L111.134 466.435C119.047 474.335 127.038 482.166 135.02 489.997C135.817 490.775 136.603 491.553 137.399 492.33C137.468 492.401 137.527 492.46 137.595 492.531C139.817 494.715 142.225 496.421 144.84 497.657C144.85 497.657 144.86 497.668 144.879 497.678C145.578 498.006 146.304 498.306 147.032 498.566C148.418 498.975 149.765 499.393 151.19 499.632C154.336 500.152 157.56 499.952 160.725 499.952C163.998 499.952 167.261 499.952 170.535 499.952C173.808 499.952 177.071 499.952 180.345 499.952H184.513C185.318 499.952 186.144 499.952 186.92 500.181C187.707 500.41 188.198 500.849 188.68 501.468C189.182 502.116 189.496 502.754 189.496 503.602V528.261C189.496 529.927 191.157 531.194 192.7 531.343C195.049 531.583 197.526 531.364 199.896 531.374C204.791 531.383 209.676 531.394 214.571 531.404C219.574 531.414 224.873 531.922 229.768 530.705C233.611 529.757 237.12 527.852 240.129 525.338C240.886 524.71 241.622 524.032 242.35 523.304C242.507 523.145 242.665 522.994 242.821 522.835C243.913 521.748 245.014 520.661 246.105 519.573C250.45 515.264 254.824 510.994 259.208 506.715L270.777 495.303C275.24 490.575 278.002 484.271 278.12 477.338V438.585C278.12 438.435 278.12 438.285 278.12 438.136C278.12 437.986 278.12 437.836 278.12 437.687L278.101 437.716ZM189.437 388.22C189.339 395.641 189.408 403.063 189.388 410.484C189.388 410.545 189.388 410.594 189.388 410.654C189.369 411.871 189.182 412.878 188.641 413.657C188.346 414.085 187.953 414.444 187.422 414.723C186.901 415.004 186.262 415.212 185.465 415.352C173.504 417.407 165.049 425.288 163.044 435.831C162.307 439.722 162.248 443.413 162.848 446.844C162.986 447.612 163.153 448.38 163.359 449.139C163.566 449.886 163.801 450.635 164.076 451.363C164.352 452.091 164.657 452.799 164.991 453.497C165.335 454.196 165.698 454.874 166.111 455.543C166.515 456.21 166.957 456.859 167.428 457.498C167.9 458.136 168.412 458.755 168.943 459.353C169.474 459.951 170.053 460.55 170.652 461.109C171.262 461.678 171.891 462.226 172.55 462.754C173.208 463.273 173.926 463.802 174.644 464.291C175.636 464.959 176.668 465.597 177.73 466.156C178.064 466.336 178.428 466.456 178.742 466.645C178.949 466.764 179.096 466.964 179.156 467.193C179.175 467.263 179.175 467.323 179.175 467.392C179.175 467.482 179.165 467.562 179.135 467.652C179.028 468.011 178.683 468.271 178.281 468.271H158.887C152.399 468.271 145.922 468.271 139.434 468.271H138.854C138.196 468.271 137.527 468.311 136.878 468.25C135.493 468.131 134.332 467.193 133.91 465.936C133.673 465.228 133.684 464.49 133.684 463.752V462.455C133.684 461.678 133.684 460.899 133.693 460.121C133.693 459.433 133.693 458.745 133.693 458.067C133.722 449.817 133.742 441.567 133.752 433.328C133.752 428.569 133.752 423.802 133.752 419.033C133.752 414.196 133.742 409.357 133.722 404.529C133.722 399.751 133.693 394.983 133.673 390.205C133.673 388.958 133.507 387.632 133.899 386.434C134.362 385.038 135.698 384.03 137.271 384.03C139.434 384.03 141.586 384.03 143.749 384.03H176.816C178.437 384.03 180.05 384.03 181.672 384.03C182.34 384.03 183.009 384.03 183.677 384.03C184.345 384.03 184.985 384 185.633 384.05C186.35 384.1 186.97 384.22 187.491 384.43C188.307 384.768 188.877 385.337 189.182 386.245C189.329 386.694 189.418 387.223 189.437 387.84C189.437 387.97 189.437 388.11 189.437 388.249V388.22ZM246.066 495.333C246.066 495.503 246.056 495.662 246.036 495.822C245.849 498.256 244.837 499.344 242.694 499.653H242.684C242.192 499.722 241.633 499.752 241.014 499.752C239.283 499.743 237.543 499.722 235.813 499.712C230.732 499.682 225.65 499.663 220.568 499.653H212.714C207.003 499.653 201.292 499.682 195.58 499.722C195.198 499.722 194.804 499.722 194.421 499.722C193.92 499.722 193.477 499.703 193.074 499.642C191.669 499.443 190.813 498.874 190.351 497.867C190.046 497.189 189.928 496.321 189.939 495.234C190.037 487.972 189.968 480.71 189.939 473.448C189.939 472.45 190.056 471.592 190.351 470.884C190.813 469.767 191.698 468.989 193.192 468.52C193.496 468.42 193.831 468.34 194.195 468.271C197.891 467.553 201.262 466.276 204.191 464.57C210.905 460.65 215.367 454.405 216.459 447.064C216.498 446.764 216.547 446.474 216.577 446.176C216.98 442.953 216.96 439.911 216.498 437.078C216.341 436.111 216.144 435.163 215.889 434.245C215.063 431.232 213.707 428.469 211.829 425.976C209.411 422.753 206.128 419.991 202 417.717C201.626 417.507 201.253 417.297 200.889 417.088C200.859 417.078 200.82 417.058 200.79 417.048C200.741 417.018 200.692 416.989 200.653 416.958C200.574 416.899 200.505 416.819 200.447 416.729C200.368 416.599 200.319 416.439 200.319 416.28C200.319 415.801 200.711 415.402 201.204 415.402H219.329C223.497 415.402 227.664 415.422 231.833 415.402C233.139 415.402 234.447 415.392 235.755 415.382C237.425 415.373 239.096 415.352 240.767 415.332C241.368 415.332 241.898 415.342 242.379 415.402C242.399 415.402 242.418 415.402 242.439 415.402C244.818 415.701 245.869 416.859 246.036 419.582C246.036 419.692 246.045 419.792 246.045 419.911V421.677C246.045 422.904 246.036 424.13 246.026 425.357C245.987 433.647 245.957 441.936 245.947 450.226C245.947 455.094 245.947 459.962 245.947 464.829C245.957 473.318 245.987 481.797 246.026 490.286C246.026 491.403 246.036 492.51 246.045 493.628C246.045 494.027 246.045 494.426 246.045 494.825C246.045 494.994 246.045 495.164 246.045 495.324L246.066 495.333Z" fill="black"/>
<path d="M397.397 403.383C424.034 403.383 434.947 414.5 434.947 441.069C434.947 466.508 424.589 480.829 398.507 480.829H376.125V403.383H397.397ZM355.038 498.542H400.172C434.947 498.542 456.035 476.872 456.035 441.069C456.035 405.267 438.462 385.482 400.172 385.482H355.038V498.542Z" fill="black"/>
<path d="M500.575 484.597C489.291 484.597 485.407 479.133 485.407 472.726C485.407 465.377 491.141 461.609 501.13 461.609H523.697V465.189C523.697 476.306 514.448 484.597 500.575 484.597ZM524.622 498.542H543.489V442.012C543.489 419.965 532.761 407.905 507.604 407.905C485.407 407.905 473.013 418.646 469.684 435.416L488.551 439.75C490.771 429.387 496.69 424.111 506.864 424.111C519.072 424.111 523.697 430.706 523.697 442.2V448.23H497.8C475.788 448.23 466.354 459.724 466.354 475.553C466.354 492.889 477.268 500.426 492.806 500.426C508.159 500.426 518.148 491.758 522.587 477.437H524.622V498.542Z" fill="black"/>
<path d="M567.73 531.517C587.707 531.517 598.436 521.719 607.315 499.672L643.2 409.978H621.928L612.494 442.389C609.164 453.318 604.91 467.45 601.026 480.64H598.066C594.366 467.827 589.557 453.129 586.042 442.012L575.869 409.978H554.042L589.002 497.599C583.268 510.978 578.088 513.428 568.285 513.428C564.585 513.428 560.886 512.862 557.186 512.109L554.042 530.387C558.111 530.952 561.996 531.517 567.73 531.517Z" fill="black"/>
<path d="M725.575 457.652V438.997H675.447V405.267H730.939V385.482H654.359V498.542H675.447V457.652H725.575Z" fill="black"/>
<path d="M768.842 394.903V378.51H747.2V394.903H768.842ZM767.917 498.542V409.978H747.94V498.542H767.917Z" fill="black"/>
</svg>
